<svg xmlns="http://www.w3.org/2000/svg" xmlns:xlink="http://www.w3.org/1999/xlink" preserveAspectRatio="xMidYMid" width="120" height="120" viewBox="0 0 120 120">
  <defs>
    <style>
      .cls-1 {
        fill: #c3cfd8;
      }

      .cls-2 {
        fill: #fff;
        fill-rule: evenodd;
      }
    </style>
  </defs>
  <circle cx="60" cy="60" r="60" class="cls-1"/>
  <path d="M84.450,84.166 C89.677,85.796 93.057,86.369 95.962,88.706 C87.482,99.308 74.445,106.106 59.812,106.106 C45.279,106.106 32.316,99.401 23.832,88.922 C26.797,86.400 30.224,85.845 35.610,84.166 C43.367,81.747 47.078,78.752 47.774,75.659 C47.987,74.712 48.129,73.257 48.224,71.697 C43.176,69.558 41.449,63.568 40.398,59.404 C40.295,59.011 40.193,58.601 40.092,58.186 C38.594,57.923 36.944,56.038 36.098,53.412 C35.079,50.250 35.614,47.248 37.293,46.707 C37.448,46.657 37.610,46.653 37.773,46.647 C37.388,44.388 36.913,41.028 36.871,38.058 C36.859,37.415 36.845,36.710 36.847,35.964 C36.848,35.591 36.854,35.207 36.866,34.815 C36.871,34.620 36.879,34.422 36.888,34.222 C36.898,34.023 36.909,33.822 36.922,33.620 C37.029,32.000 37.277,30.294 37.786,28.664 C38.806,25.405 40.856,22.448 44.775,21.123 C47.692,17.214 51.328,15.332 54.726,14.546 C55.576,14.350 56.411,14.222 57.216,14.147 C57.619,14.110 58.014,14.086 58.399,14.074 C58.591,14.067 58.781,14.064 58.969,14.064 C59.156,14.063 59.341,14.065 59.523,14.070 C60.979,14.106 62.248,14.297 63.191,14.529 C69.382,16.053 74.245,19.239 77.608,23.145 C79.284,25.098 80.574,27.233 81.414,29.431 C81.835,30.530 82.142,31.644 82.331,32.759 C82.425,33.316 82.489,33.873 82.523,34.428 C82.557,34.983 82.560,35.536 82.533,36.085 C82.233,41.559 81.479,44.279 80.945,46.309 C82.628,46.825 83.217,49.812 82.259,52.988 C81.499,55.505 79.997,57.362 78.566,57.784 C78.287,58.789 78.089,59.458 78.087,59.457 C77.536,63.703 76.439,68.270 71.807,71.195 C71.902,72.942 72.050,74.611 72.285,75.659 C72.981,78.752 76.693,81.747 84.450,84.166 Z" class="cls-2"/>
</svg>
