<svg id="Layer_1" data-name="Layer 1" xmlns="http://www.w3.org/2000/svg" viewBox="0 0 94 74"><defs><style>.cls-1{fill:none;}.cls-2{fill:#f3f3f7;}.cls-3{fill:#f9f9fa;}.cls-4{fill:#dcdce0;}.cls-5{fill:#fff;}.cls-6{clip-path:url(#clip-path);}.cls-7{fill:#59acff;}.cls-8{fill:#9cf;}</style><clipPath id="clip-path"><path class="cls-1" d="M90.18 34.61a3 3 0 0 0-1.48-1L68.81 18c-2.66-2-4.06-2-6.69 0l-20.6 16.13a4.13 4.13 0 0 0-.71.48 5.43 5.43 0 0 0-1.1 1.9L62 54c2.81 2.07 4.29 2.11 7.07 0l22.22-17.46a4.28 4.28 0 0 0-1.11-1.93z"/></clipPath></defs><title>sent</title><path class="cls-2" d="M50 45.09H38a.5.5 0 0 1 0-1h12a.5.5 0 0 1 0 1zm-21 0h-1a.5.5 0 1 1 0-1h1a.5.5 0 0 1 0 1zm-5 0h-3a.5.5 0 1 1 0-1h3a.5.5 0 0 1 0 1zm-11 0H1a.5.5 0 0 1 0-1h12a.5.5 0 0 1 0 1zM53.1 49.9H1a1 1 0 0 1 0-2h52.1a1 1 0 0 1 0 2zM51 55.95h-6a.5.5 0 0 1 0-1h6a.5.5 0 0 1 0 1zm-8 0h-4a.5.5 0 0 1 0-1h4a.5.5 0 0 1 0 1zm-12 0H21a.5.5 0 1 1 0-1h10a.5.5 0 0 1 0 1zm-16 0h-2a.5.5 0 1 1 0-1h2a.5.5 0 0 1 0 1zm-6 0H1a.5.5 0 0 1 0-1h8a.5.5 0 0 1 0 1z"/><g id="Layer_2" data-name="Layer 2"><path class="cls-3" d="M91.58 66.93a1 1 0 0 1-.58-.18l-25.51-18-25.49 18a1 1 0 0 1-1.58-.82V38.22a5.9 5.9 0 0 1 5.89-5.89h42.38a5.9 5.9 0 0 1 5.89 5.89v27.71a1 1 0 0 1-1 1z"/><path class="cls-4" d="M86.69 33.33a4.89 4.89 0 0 1 4.89 4.89v27.71L65.49 47.58 39.41 65.93V38.22a4.89 4.89 0 0 1 4.89-4.89h42.39m0-2H44.3a6.9 6.9 0 0 0-6.89 6.89v27.71a2 2 0 0 0 3.15 1.64L65.49 50l24.94 17.57a2 2 0 0 0 3.15-1.64V38.22a6.9 6.9 0 0 0-6.89-6.89z"/></g><g id="Layer_3" data-name="Layer 3"><path class="cls-3" d="M44 70.35a2.85 2.85 0 0 1-.44 0h-.12a1.86 1.86 0 0 1-.34-.06.93.93 0 0 0 .2 0 5.92 5.92 0 0 1-3.21-1.41l-.09-.07-.12-.12a4.89 4.89 0 0 1-.5-.5 5.93 5.93 0 0 1-1-1.66v-.07a1.05 1.05 0 0 1 0-.16.58.58 0 0 1 0-.23 1 1 0 0 1 .38-.76c1.25-1.47 6-5.28 22.57-17.8a6.93 6.93 0 0 1 4.17-1.79c1.27 0 2.49.52 4.21 1.79C86.1 60 90.93 63.82 92.23 65.33a1 1 0 0 1 .31 1.29A5.92 5.92 0 0 1 87 70.35z"/><path class="cls-4" d="M65.44 46.75a6.31 6.31 0 0 1 3.61 1.59S91.86 65.57 91.66 66.1A5 5 0 0 1 87 69.35H44c-.16 0-.31 0-.47-.05h-.11a4.91 4.91 0 0 1-2.71-1.21 4.32 4.32 0 0 1-1.41-1.99c-.19-.53 22.58-17.74 22.58-17.74a6.09 6.09 0 0 1 3.57-1.59m0-2a8.07 8.07 0 0 0-4.77 2c-.05 0-5.76 4.36-11.37 8.68C46 58 43.36 60 41.49 61.53c-1.13.9-2 1.62-2.59 2.13-.9.78-1.83 1.58-1.58 2.79a2 2 0 0 0 .15.47 6.94 6.94 0 0 0 1.12 1.9 5.32 5.32 0 0 0 .56.57l.15.15.15.12a6.89 6.89 0 0 0 3.55 1.6H43.34a3.77 3.77 0 0 0 .6.05H87a6.91 6.91 0 0 0 6.42-4.29 2 2 0 0 0 .24-.94c0-1-.81-1.75-1.62-2.45-.59-.51-1.46-1.23-2.59-2.13-1.87-1.5-4.45-3.5-7.8-6.06-5.65-4.33-11.34-8.65-11.39-8.69a8.34 8.34 0 0 0-4.82-2z"/></g><g id="_Group_" data-name="&lt;Group&gt;"><path class="cls-5" d="M65.54 56.62c-1.25 0-2.46-.51-4.15-1.76l-22.3-17.51a1 1 0 0 1-.33-1.11 6.09 6.09 0 0 1 1.39-2.33 4.94 4.94 0 0 1 .81-.57L61.5 17.21a6.55 6.55 0 0 1 3.94-1.7 6.64 6.64 0 0 1 4 1.68l19.73 15.53A4 4 0 0 1 90.94 34a5 5 0 0 1 1.34 2.47 1 1 0 0 1-.38.89L69.67 54.84a6.86 6.86 0 0 1-4.13 1.78z"/><path class="cls-4" d="M65.44 16.52A5.88 5.88 0 0 1 68.81 18l19.88 15.62a3 3 0 0 1 1.48 1 4.28 4.28 0 0 1 1.11 1.93L69.05 54.06a6 6 0 0 1-3.51 1.57A6.21 6.21 0 0 1 62 54.06l-22.29-17.5a5.43 5.43 0 0 1 1.1-1.9 4.13 4.13 0 0 1 .71-.48L62.12 18a5.68 5.68 0 0 1 3.32-1.48m0-2a7.65 7.65 0 0 0-4.53 1.89L40.4 32.52a5.73 5.73 0 0 0-.91.65 7 7 0 0 0-1.67 2.76 2 2 0 0 0 .66 2.21l22.27 17.49a8.21 8.21 0 0 0 4.75 2 8 8 0 0 0 4.72-2l22.31-17.47a2 2 0 0 0 .75-1.79 6 6 0 0 0-1.57-3 5.13 5.13 0 0 0-2-1.53L70 16.43a7.86 7.86 0 0 0-4.56-1.88z"/></g><g class="cls-6"><path class="cls-1" d="M65.5 39.44a4.14 4.14 0 0 0-.88 4.56L70 38.56a4.14 4.14 0 0 0-4.5.88z"/><path class="cls-1" d="M65.5 45.3l6.72 6.7a4.14 4.14 0 0 0 5.85-5.85l-6.72-6.72a4.11 4.11 0 0 0-1.35-.87L64.62 44a4.13 4.13 0 0 0 .88 1.3z"/><path class="cls-7" d="M80.51 43.72L73.79 37a7.58 7.58 0 0 0-1.21-1L70 38.56a4.11 4.11 0 0 1 1.32.88l6.72 6.72A4.14 4.14 0 1 1 72.22 52l-6.72-6.7a4.13 4.13 0 0 1-.88-1.3l-2.54 2.54a7.59 7.59 0 0 0 1 1.21l6.72 6.72a7.59 7.59 0 0 0 10.71-10.75z"/><path class="cls-1" d="M66.21 40.15a3.06 3.06 0 0 0-.8 3l3.84-3.84a3.06 3.06 0 0 0-3 .8zM66.21 44.59l6.72 6.72a3.14 3.14 0 0 0 4.44-4.44l-6.72-6.72a3.1 3.1 0 0 0-1.4-.8l-3.84 3.84a3.11 3.11 0 0 0 .8 1.4z"/><path class="cls-1" d="M69.78 54.45a7.59 7.59 0 0 0 10.73-10.73L73.79 37a7.59 7.59 0 0 0-11.71 9.51L64.62 44A4.13 4.13 0 0 1 70 38.56L72.58 36 70 38.56a4.11 4.11 0 0 1 1.32.88l6.72 6.72A4.14 4.14 0 0 1 72.22 52l-6.72-6.7a4.13 4.13 0 0 1-.88-1.3l-2.54 2.54a7.59 7.59 0 0 0 1 1.21z"/><path class="cls-5" d="M70 38.56l-.79.79a3.1 3.1 0 0 1 1.4.8l6.72 6.72a3.14 3.14 0 0 1-4.44 4.44l-6.72-6.72a3.11 3.11 0 0 1-.8-1.4l-.79.79a4.13 4.13 0 0 0 .88 1.31L72.22 52a4.14 4.14 0 0 0 5.85-5.85l-6.72-6.72a4.11 4.11 0 0 0-1.35-.87z"/><path class="cls-8" d="M62 38.92a4.13 4.13 0 0 1 3.81 5.75l2.54 2.54a7.59 7.59 0 0 0-10.5-10.5l2.54 2.54a4.13 4.13 0 0 1 1.61-.33z"/><path class="cls-5" d="M62 39.92a3.1 3.1 0 0 1 3 4l.79.79a4.14 4.14 0 0 0-5.42-5.42l.79.79a3.13 3.13 0 0 1 .84-.16z"/><path class="cls-5" d="M81.22 43l-6.72-6.7a8.61 8.61 0 0 0-10.13-1.5 8.64 8.64 0 0 0-2.37-.32A8.53 8.53 0 0 0 57.15 36 8.64 8.64 0 0 0 56 37l-6.76 6.7a8.59 8.59 0 0 0 12.14 12.14l4.19-4.19 3.51 3.51A8.59 8.59 0 0 0 81.22 43zM60.67 55.14a7.59 7.59 0 0 1-10.73-10.73l6.72-6.72a7.5 7.5 0 0 1 6.54-2.12 8.66 8.66 0 0 0-.84.73 8.54 8.54 0 0 0-1.93 3 4.13 4.13 0 0 0-1.31.88L52.4 46.9a4.14 4.14 0 0 0 5.85 5.85l4.19-4.19L64.88 51zm.69-7.9c.12.18.26.35.4.52L57.53 52a3.14 3.14 0 0 1-4.44-4.44l6.72-6.72c.06-.06.14-.1.21-.16a8.69 8.69 0 0 0-.17 1.69 8.53 8.53 0 0 0 1.51 4.87zm1.77.56L65 46a4.11 4.11 0 0 0 .88-1.32l-.88-.8a3.1 3.1 0 0 1-.8 1.4l-1.78 1.78c-.14-.17-.27-.35-.39-.53a7.55 7.55 0 0 1 2.46-10.63 7.53 7.53 0 0 1 2.89 1.8 7.64 7.64 0 0 1 .53.59 4.12 4.12 0 0 0-3.3 5.7l.79-.79a3.12 3.12 0 0 1 3-4h.14a7.58 7.58 0 0 1-1.18 9.18l-1.82 1.82zm17.38 6.65a7.59 7.59 0 0 1-10.73 0l-3.51-3.51 1.82-1.82A8.61 8.61 0 0 0 69.6 39l.44-.44a4.21 4.21 0 0 0-.86-.25 8.53 8.53 0 0 0-3.49-3 7.58 7.58 0 0 1 8.1 1.7l6.72 6.72a7.59 7.59 0 0 1 0 10.73z"/><path class="cls-8" d="M60.67 55.14l6.72-6.72a7.58 7.58 0 0 0 1-1.21l-2.54-2.54A4.11 4.11 0 0 1 65 46l-6.77 6.7a4.14 4.14 0 0 1-5.85-5.85l6.72-6.72a4.13 4.13 0 0 1 1.31-.88l-2.54-2.54a7.59 7.59 0 0 0-1.21 1l-6.72 6.72a7.59 7.59 0 0 0 10.73 10.71z"/><path class="cls-7" d="M64.29 42.37A4.13 4.13 0 0 1 70 38.56L72.58 36a7.59 7.59 0 0 0-10.5 10.5l2.54-2.5a4.13 4.13 0 0 1-.33-1.63z"/></g><path class="cls-7" d="M63.87 9.88a1.14 1.14 0 0 1-1.1-.88 3.41 3.41 0 0 0-2.47-2.45 1.14 1.14 0 0 1 0-2.21 3.41 3.41 0 0 0 2.46-2.47 1.14 1.14 0 0 1 2.21 0 3.41 3.41 0 0 0 2.47 2.46 1.14 1.14 0 0 1 0 2.21A3.41 3.41 0 0 0 65 9a1.14 1.14 0 0 1-1.13.88z"/><path class="cls-5" d="M63.87 2a.14.14 0 0 1 .14.11 4.42 4.42 0 0 0 3.19 3.2.14.14 0 0 1 0 .27A4.42 4.42 0 0 0 64 8.77a.14.14 0 0 1-.27 0 4.42 4.42 0 0 0-3.19-3.19.14.14 0 0 1 0-.27 4.42 4.42 0 0 0 3.19-3.19.14.14 0 0 1 .14-.12m0-2a2.14 2.14 0 0 0-2.07 1.63 2.41 2.41 0 0 1-1.74 1.74 2.14 2.14 0 0 0 0 4.15 2.41 2.41 0 0 1 1.74 1.74 2.14 2.14 0 0 0 4.15 0 2.41 2.41 0 0 1 1.74-1.74 2.14 2.14 0 0 0 0-4.15 2.41 2.41 0 0 1-1.74-1.74A2.14 2.14 0 0 0 63.87 0z"/><path class="cls-8" d="M72.4 19.09a1.26 1.26 0 0 1-1.21-.95 6.8 6.8 0 0 0-4.92-4.92 1.24 1.24 0 0 1 0-2.41 6.76 6.76 0 0 0 4.91-4.91 1.24 1.24 0 0 1 2.42 0 6.79 6.79 0 0 0 4.92 4.92 1.24 1.24 0 0 1 0 2.41 6.79 6.79 0 0 0-4.9 4.91 1.25 1.25 0 0 1-1.22.95z"/><path class="cls-5" d="M72.39 5.94a.25.25 0 0 1 .24.2 7.82 7.82 0 0 0 5.64 5.64.24.24 0 0 1 0 .47 7.82 7.82 0 0 0-5.64 5.64.24.24 0 0 1-.24.2.25.25 0 0 1-.24-.2 7.82 7.82 0 0 0-5.64-5.64.24.24 0 0 1 0-.48 7.79 7.79 0 0 0 5.64-5.63.24.24 0 0 1 .24-.2m0-2a2.25 2.25 0 0 0-2.18 1.72A5.75 5.75 0 0 1 66 9.84a2.24 2.24 0 0 0 0 4.36 5.79 5.79 0 0 1 4.18 4.19 2.24 2.24 0 0 0 4.36 0 5.79 5.79 0 0 1 4.19-4.18 2.24 2.24 0 0 0 0-4.35 5.79 5.79 0 0 1-4.18-4.19 2.27 2.27 0 0 0-2.18-1.71z"/><path class="cls-7" d="M60.06 30.82a1.37 1.37 0 0 1-1.33-1.06 10.64 10.64 0 0 0-7.73-7.7 1.36 1.36 0 0 1 0-2.65 10.64 10.64 0 0 0 7.71-7.71 1.36 1.36 0 0 1 2.65 0 10.64 10.64 0 0 0 7.71 7.71 1.36 1.36 0 0 1 0 2.65 10.64 10.64 0 0 0-7.72 7.71 1.37 1.37 0 0 1-1.29 1.05z"/><path class="cls-5" d="M60.06 11.64a.37.37 0 0 1 .35.3 11.68 11.68 0 0 0 8.43 8.43.36.36 0 0 1 0 .71 11.68 11.68 0 0 0-8.43 8.43.37.37 0 0 1-.36.3.37.37 0 0 1-.35-.3 11.68 11.68 0 0 0-8.43-8.43.36.36 0 0 1 0-.71 11.68 11.68 0 0 0 8.43-8.43.37.37 0 0 1 .36-.3m0-2a2.38 2.38 0 0 0-2.29 1.79 9.65 9.65 0 0 1-7 7 2.36 2.36 0 0 0 0 4.59 9.65 9.65 0 0 1 7 7 2.36 2.36 0 0 0 4.59 0 9.65 9.65 0 0 1 7-7 2.36 2.36 0 0 0 0-4.59 9.64 9.64 0 0 1-7-7 2.37 2.37 0 0 0-2.29-1.81z"/></svg>