<?xml version="1.0" encoding="UTF-8" standalone="no"?><svg width="144" height="72" viewBox="0 0 144 72" xmlns="http://www.w3.org/2000/svg"><title>Artboard</title><defs><linearGradient x1="-85.914%" y1="-85.918%" x2="163.645%" y2="184.973%" id="a"><stop stop-color="#00C8D7" offset="0%"/><stop stop-color="#0A84FF" offset="100%"/></linearGradient><linearGradient x1="804.132%" y1="-4083%" x2="7476.758%" y2="8906%" id="b"><stop stop-color="#00C8D7" offset="0%"/><stop stop-color="#0A84FF" offset="100%"/></linearGradient><linearGradient x1="-.015%" y1="50.019%" y2="50.019%" id="c"><stop stop-color="#02BDDE" offset="0%"/><stop stop-color="#04AEE7" offset="100%"/></linearGradient><linearGradient x1="7157%" y1="5142%" x2="7695%" y2="5142%" id="d"><stop stop-color="#02BDDE" offset="0%"/><stop stop-color="#04AEE7" offset="100%"/></linearGradient><linearGradient x1="3797%" y1="-1499.38%" x2="12611%" y2="7105.683%" id="e"><stop stop-color="#00C8D7" offset="0%"/><stop stop-color="#0A84FF" offset="100%"/></linearGradient></defs><g fill-rule="nonzero" fill="none"><path d="M51 45.07H39c-.276 0-.5-.224-.5-.5s.224-.5.5-.5h12c.276 0 .5.224.5.5s-.224.5-.5.5zm-21 0h-1c-.276 0-.5-.224-.5-.5s.224-.5.5-.5h1c.276 0 .5.224.5.5s-.224.5-.5.5zm-5 0h-3c-.276 0-.5-.224-.5-.5s.224-.5.5-.5h3c.276 0 .5.224.5.5s-.224.5-.5.5zm-11 0H2c-.276 0-.5-.224-.5-.5s.224-.5.5-.5h12c.276 0 .5.224.5.5s-.224.5-.5.5zm41.1 3.81c0-.552-.448-1-1-1H2c-.552 0-1 .448-1 1s.448 1 1 1h52.1c.552 0 1-.448 1-1zM52 55.93h-6c-.276 0-.5-.224-.5-.5s.224-.5.5-.5h6c.276 0 .5.224.5.5s-.224.5-.5.5zm-8 0h-4c-.276 0-.5-.224-.5-.5s.224-.5.5-.5h4c.276 0 .5.224.5.5s-.224.5-.5.5zm-12 0H22c-.276 0-.5-.224-.5-.5s.224-.5.5-.5h10c.276 0 .5.224.5.5s-.224.5-.5.5zm-16 0h-2c-.276 0-.5-.224-.5-.5s.224-.5.5-.5h2c.276 0 .5.224.5.5s-.224.5-.5.5zm-6 0H2c-.276 0-.5-.224-.5-.5s.224-.5.5-.5h8c.276 0 .5.224.5.5s-.224.5-.5.5z" fill="#EAEAEE"/><path d="M45.41 63.21c.55-.46 1.24-1 2.08-1.7C49.37 60 52 58 55.29 55.42L61.06 51 45.41 38.7v24.51zM81.93 51l5.73 4.39C91 58 93.59 60 95.47 61.53c.86.667 1.567 1.243 2.12 1.73V38.74L81.93 51zm15.72 15.14c.14-.37-10.64-8.65-17.36-13.77l-4 3.17c-1.31 1.166-2.97 1.87-4.72 2-1.757-.14-3.422-.84-4.75-2l-4.07-3.19C56 57.39 45.16 65.7 45.3 66.07c.26.755.724 1.423 1.34 1.93.757.673 1.703 1.096 2.71 1.21h.11c.16 0 .31.05.47.05H93c2.042.007 3.882-1.228 4.65-3.12z" fill="#CCEDF0"/><path d="M99.58 65.5V38.2c-.004-.678-.108-1.352-.31-2-.224-1.128-.765-2.17-1.56-3-.53-.668-1.217-1.194-2-1.53L80 19.38c-.716.77-1.877.924-2.77.37L94.7 33.46c.583.175 1.1.524 1.48 1 .534.534.917 1.2 1.11 1.93l-10.24 8 .12.16-2.72 2.13-.12-.15-6.53 5.13.14.14-2.72 2.2-.14-.14c-.966.894-2.2 1.446-3.51 1.57-1.165-.1-2.27-.553-3.17-1.3l-.15.15-.25-.14-2.5-2 .14-.14-6.56-5.15-.14.14-2.74-2.11.14-.14-10.62-8.34c.233-.702.608-1.348 1.1-1.9.22-.184.457-.345.71-.48l12.27-9.64c-.607-.406-1.257-.74-1.94-1l-11.45 9c-.324.186-.63.404-.91.65-.764.777-1.336 1.723-1.67 2.76-.005.08-.005.16 0 .24-.244.71-.37 1.458-.37 2.21v27.15c-.124.318-.155.665-.09 1 .03.162.08.32.15.47.27.69.648 1.33 1.12 1.9.172.204.36.394.56.57l.15.15.15.12c.986.87 2.2 1.438 3.5 1.64h.34c.198.033.4.05.6.05H93c2.82.02 5.37-1.68 6.44-4.29.156-.29.238-.612.24-.94-.003-.19-.037-.38-.1-.56zM50 69.34c-.16 0-.31 0-.47-.05h-.11c-1.007-.114-1.953-.537-2.71-1.21-.618-.51-1.082-1.182-1.34-1.94-.21-.44 10.63-8.75 17.32-13.87l4.07 3.19c1.328 1.16 2.993 1.86 4.75 2 1.75-.13 3.41-.834 4.72-2l4-3.17C87 57.44 97.8 65.72 97.66 66.09c-.727 1.946-2.582 3.24-4.66 3.25H50zM61.06 51l-5.77 4.42C52 58 49.37 60 47.49 61.51c-.84.67-1.54 1.24-2.08 1.7V38.7L61.06 51zm36.52 12.26c-.553-.46-1.26-1.037-2.12-1.73C93.59 60 91 58 87.66 55.42L81.93 51l15.65-12.3v24.56z" fill="url(#a)"/><path d="M70.9 43.85c-.04-.276.15-.534.425-.575.276-.04.534.15.575.425.062.622-.038 1.25-.29 1.82.46-1.15.367-2.447-.25-3.52-.005.087-.005.173 0 .26-.01.268-.23.48-.5.48-.133-.005-.258-.063-.348-.16-.09-.098-.137-.227-.132-.36.015-.415.09-.826.22-1.22-.474 1.16-.377 2.473.26 3.55.047-.23.06-.466.04-.7zm6.46-4.27c-1.114-1.124-2.773-1.512-4.27-1 .516-.156 1.05-.233 1.59-.23.276 0 .5.224.5.5s-.224.5-.5.5c-.285 0-.57.027-.85.08 1.9 2.522 2.03 5.96.33 8.62l.45-.5c.12-.132.304-.19.48-.15.175.04.316.168.37.34.053.17.01.358-.11.49l-.48.53 2.91 2.91 6.53-5.13c-.09-.1-.16-.22-.26-.31l-6.69-6.65zm-5.41 12.47c-.095.103-.23.16-.37.16-.126.002-.248-.045-.34-.13-.095-.094-.148-.222-.148-.355 0-.133.053-.26.148-.355l.56-.61-3.39 3.39c.9.747 2.005 1.2 3.17 1.3 1.31-.124 2.544-.676 3.51-1.57l-2.51-2.51-.63.68zm-2.52-3.82c-.78.78-1.49 1.46-1.54 1.5-.202.19-.52.182-.71-.02-.19-.202-.182-.52.02-.71 0 0 .75-.7 1.54-1.5-1.805-2.07-2.342-4.96-1.4-7.54-.17.378-.297.774-.38 1.18.016.228-.124.438-.34.51h-.16c-.213-.002-.402-.138-.47-.34-.012-.363.053-.724.19-1.06-.465.2-.89.485-1.25.84L63 43l-3.91 3.91L65.62 52l3.81-3.77z" fill="#FFF"/><path d="M71.42 16.36c1.253.12 2.434.64 3.37 1.48l.91.71c.37.163.694.418.94.74l.16.12c-.282-.277-.49-.62-.6-1-.393-1.536-1.398-2.844-2.78-3.62-.637-.252-1.315-.384-2-.39-.547.004-1.09.09-1.61.26.465.63 1.006 1.2 1.61 1.7z" fill="url(#b)"/><path d="M70.75 40.66c-.06.11-.12.22-.16.33.05-.1.1-.21.16-.33zm.25-.38l.09-.14-.09.14zm-1.41-3.61l-.39.37c.12-.13.26-.26.39-.37zm2.52 2.42l.09-.09-.09.09zm-4.8.84c.09-.25.194-.492.31-.73-.14.26-.25.51-.35.73h.04zm5.78-1.32c-.203.07-.4.158-.59.26.197-.096.4-.176.61-.24l-.02-.02z" fill="#9CF"/><path d="M79.8 37.14c-2.77-2.762-7.187-2.966-10.2-.47-.14.11-.27.24-.4.36-.632.64-1.164 1.372-1.58 2.17-.116.238-.22.48-.31.73-.942 2.58-.405 5.47 1.4 7.54.53-.54 1.09-1.12 1.48-1.58.327-.388.55-.852.65-1.35-.634-1.075-.73-2.384-.26-3.54 0-.11.11-.22.16-.33.063-.13.133-.257.21-.38l.09-.14c.278-.42.638-.776 1.06-1.05l.1-.1.3-.16c1.6-.864 3.575-.575 4.86.71l6.72 6.72c.1.1.17.21.26.31l.12.15 2.72-2.13-.12-.16c-.17-.213-.35-.416-.54-.61l-6.72-6.69z" fill="url(#c)"/><path fill="url(#d)" d="M72.57 51.37l2.51 2.51.14.14 2.73-2.15-.14-.14-2.91-2.9-2.33 2.54"/><path d="M74.19 48.12l-.07.11.07-.11zM71 46.54c-.42.5-1 1.11-1.56 1.66l1.27-1.2c.4-.4.712-.875.92-1.4-.164.342-.377.658-.63.94z" fill="#59ACFF"/><path d="M63 43l1.88-1.88c.36-.355.785-.64 1.25-.84.467-1.408 1.235-2.698 2.25-3.78-2.205-.173-4.375.627-5.94 2.19L59 42l-2.7 2.7-.14.14L58.93 47l.14-.14L63 43zm11.11 5.21l.07-.11c1.7-2.66 1.57-6.098-.33-8.62-1.29.208-2.298 1.227-2.49 2.52.948 1.62.68 3.676-.65 5l-1.28 1.28L65.62 52l-.14.14 2.5 2 .24.16.15-.15 3.39-3.39 2.35-2.55z" fill="#90E8F0"/><path d="M71.77 50.77l-.56.61c-.095.094-.148.222-.148.355 0 .133.053.26.148.355.092.085.214.132.34.13.14 0 .275-.057.37-.16l.62-.68 2.33-2.54.48-.53c.12-.132.163-.32.11-.49-.054-.172-.195-.3-.37-.34-.176-.04-.36.018-.48.15l-.45.5-.09.09-2.3 2.55zM67.17 49c-.202.19-.21.508-.02.71.19.202.508.21.71.02 0 0 .76-.72 1.54-1.5.6-.59 1.14-1.23 1.6-1.69.258-.3.47-.637.63-1 .252-.57.352-1.198.29-1.82-.04-.276-.3-.466-.575-.425-.276.04-.466.3-.425.575.033.23.033.46 0 .69-.1.498-.323.962-.65 1.35-.39.46-.95 1-1.48 1.58-.87.78-1.61 1.51-1.62 1.51zm3.16-6.81c-.005.133.042.262.132.36.09.097.215.155.348.16.27 0 .49-.212.5-.48-.005-.087-.005-.173 0-.26.204-1.28 1.21-2.286 2.49-2.49.28-.053.565-.08.85-.08.276 0 .5-.224.5-.5s-.224-.5-.5-.5c-.54-.003-1.074.074-1.59.23-.21.064-.413.144-.61.24l-.3.16-.09.06c-.422.274-.782.63-1.06 1.05l-.09.14c-.077.123-.147.25-.21.38-.06.12-.1.23-.15.34-.128.385-.202.785-.22 1.19zm-4.41-.88c.068.202.257.338.47.34h.16c.216-.072.356-.282.34-.51.083-.406.21-.802.38-1.18.1-.23.21-.47.35-.73.408-.818.937-1.57 1.57-2.23l.39-.37c.416-.368.872-.686 1.36-.95.17-.077.284-.242.294-.428.01-.187-.084-.364-.244-.46-.16-.094-.362-.09-.52.008-.786.427-1.498.977-2.11 1.63-1.015 1.082-1.783 2.372-2.25 3.78-.143.348-.207.724-.19 1.1z" fill="#FFF"/><path d="M69.88 9.88c-.526-.005-.98-.368-1.1-.88-.307-1.215-1.255-2.163-2.47-2.47-.506-.128-.86-.583-.86-1.105s.354-.977.86-1.105c1.21-.31 2.155-1.258 2.46-2.47.128-.506.583-.86 1.105-.86s.977.354 1.105.86c.307 1.215 1.255 2.163 2.47 2.47.506.128.86.583.86 1.105s-.354.977-.86 1.105C72.243 6.843 71.304 7.79 71 9c-.122.52-.587.885-1.12.88zm9.73 8.26c.613-2.413 2.497-4.297 4.91-4.91.556-.135.947-.633.947-1.205 0-.572-.39-1.07-.947-1.205-2.42-.61-4.31-2.5-4.92-4.92-.127-.566-.63-.97-1.21-.97s-1.083.404-1.21.97c-.61 2.422-2.506 4.31-4.93 4.91-.556.135-.947.633-.947 1.205 0 .572.39 1.07.947 1.205 2.42.61 4.31 2.5 4.92 4.92.127.566.63.97 1.21.97s1.083-.404 1.21-.97h.02zM67.4 29.76c.96-3.794 3.925-6.755 7.72-7.71.597-.17 1.006-.72 1-1.34-.003-.628-.438-1.17-1.05-1.31-3.774-.97-6.716-3.923-7.67-7.7-.143-.617-.692-1.053-1.325-1.053s-1.182.436-1.325 1.053c-.968 3.798-3.946 6.757-7.75 7.7-.594.163-1.004.704-1 1.32-.006.62.403 1.17 1 1.34 3.79.956 6.75 3.912 7.71 7.7.143.617.692 1.053 1.325 1.053s1.182-.436 1.325-1.053h.04z" fill="url(#e)"/><path d="M69.88 2c.067-.002.126.045.14.11.4 1.567 1.623 2.79 3.19 3.19.06.017.103.072.103.135 0 .063-.042.118-.103.135-1.577.395-2.81 1.624-3.21 3.2-.017.06-.072.103-.135.103-.063 0-.118-.042-.135-.103-.4-1.567-1.623-2.79-3.19-3.19-.06-.017-.103-.072-.103-.135 0-.063.042-.118.103-.135 1.567-.4 2.79-1.623 3.19-3.19.01-.073.076-.126.15-.12zm0-2c-.986 0-1.845.672-2.08 1.63-.218.855-.885 1.522-1.74 1.74-.95.24-1.617 1.095-1.617 2.075 0 .98.666 1.835 1.617 2.075.855.218 1.522.885 1.74 1.74.24.95 1.095 1.617 2.075 1.617.98 0 1.835-.666 2.075-1.617.22-.857.89-1.525 1.75-1.74.95-.24 1.617-1.095 1.617-2.075 0-.98-.666-1.835-1.617-2.075-.842-.232-1.492-.902-1.7-1.75C71.758.652 70.878-.02 69.88 0z" fill="#FFF"/><path d="M78.4 5.94c.117.002.217.085.24.2.708 2.77 2.87 4.932 5.64 5.64.11.023.19.12.19.235 0 .114-.08.212-.19.235-2.77.708-4.932 2.87-5.64 5.64-.02.117-.122.202-.24.2-.117-.002-.217-.085-.24-.2-.708-2.77-2.87-4.932-5.64-5.64-.133 0-.24-.107-.24-.24s.107-.24.24-.24c2.77-.7 4.935-2.86 5.64-5.63.02-.117.122-.202.24-.2zm0-2c-1.036.003-1.936.713-2.18 1.72-.522 2.068-2.147 3.677-4.22 4.18-1.01.24-1.725 1.14-1.725 2.18 0 1.04.714 1.94 1.725 2.18 2.056.525 3.66 2.133 4.18 4.19.24 1.01 1.14 1.725 2.18 1.725 1.04 0 1.94-.714 2.18-1.725.525-2.056 2.133-3.66 4.19-4.18 1-.247 1.704-1.144 1.704-2.175 0-1.03-.703-1.928-1.704-2.175-2.056-.525-3.66-2.133-4.18-4.19-.244-.996-1.125-1.705-2.15-1.73z" fill="#FFF"/><path d="M66.07 11.64c.172.006.317.13.35.3 1.056 4.14 4.29 7.374 8.43 8.43.173.03.3.18.3.355 0 .176-.127.326-.3.355-4.14 1.056-7.374 4.29-8.43 8.43-.033.173-.184.298-.36.3-.172-.006-.317-.13-.35-.3-1.056-4.14-4.29-7.374-8.43-8.43-.173-.03-.3-.18-.3-.355 0-.176.127-.326.3-.355 4.14-1.056 7.374-4.29 8.43-8.43.033-.173.184-.298.36-.3zm0-2c-1.08.007-2.022.742-2.29 1.79-.868 3.444-3.556 6.132-7 7-1.06.254-1.81 1.203-1.81 2.295 0 1.092.75 2.04 1.81 2.295 3.444.868 6.132 3.556 7 7 .254 1.06 1.203 1.81 2.295 1.81 1.092 0 2.04-.75 2.295-1.81.868-3.444 3.556-6.132 7-7 1.06-.254 1.81-1.203 1.81-2.295 0-1.092-.75-2.04-1.81-2.295-3.445-.866-6.134-3.555-7-7-.257-1.058-1.202-1.804-2.29-1.81l-.01.02z" fill="#FFF"/></g></svg>