<?xml version="1.0" encoding="UTF-8"?>
<svg width="122px" height="138px" viewBox="0 0 122 138" version="1.1" xmlns="http://www.w3.org/2000/svg" xmlns:xlink="http://www.w3.org/1999/xlink">
    <!-- Generator: Sketch 48.2 (47327) - http://www.bohemiancoding.com/sketch -->
    <title>code</title>
    <desc>Created with Sketch.</desc>
    <defs>
        <linearGradient x1="-170.038628%" y1="49.980897%" x2="257.195086%" y2="49.980897%" id="linearGradient-1">
            <stop stop-color="#00C8D7" offset="0%"></stop>
            <stop stop-color="#0A84FF" offset="100%"></stop>
        </linearGradient>
        <rect id="path-2" x="18" y="0" width="76" height="130" rx="4"></rect>
        <path d="M45,-8 L67,-8 C67.5522847,-8 68,-7.55228475 68,-7 L68,103 C68,103.552285 67.5522847,104 67,104 L45,104 C44.4477153,104 44,103.552285 44,103 L44,-7 C44,-7.55228475 44.4477153,-8 45,-8 Z" id="path-3"></path>
    </defs>
    <g id="Page-1" stroke="none" stroke-width="1" fill="none" fill-rule="evenodd">
        <g id="code" transform="translate(5.000000, 4.000000)">
            <g id="Rectangle">
                <use fill="#FFFFFF" fill-rule="evenodd" xlink:href="#path-2"></use>
                <rect stroke="url(#linearGradient-1)" stroke-width="4" x="16" y="-2" width="80" height="134" rx="4"></rect>
            </g>
            <rect id="Rectangle" fill="#CCEDF0" x="26" y="10" width="60" height="100" rx="1"></rect>
            <g id="Rectangle-Copy" transform="translate(56.000000, 48.000000) rotate(-90.000000) translate(-56.000000, -48.000000) ">
                <use fill="#FFFFFF" fill-rule="evenodd" xlink:href="#path-3"></use>
                <path stroke="#FFFFFF" stroke-width="5" d="M45,-10.5 L67,-10.5 C68.9329966,-10.5 70.5,-8.93299662 70.5,-7 L70.5,103 C70.5,104.932997 68.9329966,106.5 67,106.5 L45,106.5 C43.0670034,106.5 41.5,104.932997 41.5,103 L41.5,-7 C41.5,-8.93299662 43.0670034,-10.5 45,-10.5 Z"></path>
                <path stroke="url(#linearGradient-1)" stroke-width="3" d="M45,-9.5 L67,-9.5 C68.3807119,-9.5 69.5,-8.38071187 69.5,-7 L69.5,103 C69.5,104.380712 68.3807119,105.5 67,105.5 L45,105.5 C43.6192881,105.5 42.5,104.380712 42.5,103 L42.5,-7 C42.5,-8.38071187 43.6192881,-9.5 45,-9.5 Z"></path>
            </g>
            <path d="M32.9860148,48.2157895 L29.5402497,48.9973684 L31.8824691,51.7447368 L30.2609326,53 L28.4817467,49.8263158 L26.7250822,53 L25.1035457,51.7684211 L27.4232437,48.9973684 L24,48.2157895 L24.6080762,46.2736842 L27.8061065,47.7184211 L27.4682864,44 L29.495207,44 L29.1573869,47.7421053 L32.3554172,46.25 L32.9860148,48.2157895 Z M43.6235944,48.2157895 L40.1778294,48.9973684 L42.5200488,51.7447368 L40.8985123,53 L39.1193264,49.8263158 L37.3626618,53 L35.7411253,51.7684211 L38.0608234,48.9973684 L34.6375797,48.2157895 L35.2456558,46.2736842 L38.4436862,47.7184211 L38.1058661,44 L40.1327867,44 L39.7949666,47.7421053 L42.9929969,46.25 L43.6235944,48.2157895 Z M54.2611741,48.2157895 L50.815409,48.9973684 L53.1576284,51.7447368 L51.5360919,53 L49.756906,49.8263158 L48.0002415,53 L46.378705,51.7684211 L48.698403,48.9973684 L45.2751593,48.2157895 L45.8832355,46.2736842 L49.0812658,47.7184211 L48.7434457,44 L50.7703663,44 L50.4325462,47.7421053 L53.6305766,46.25 L54.2611741,48.2157895 Z M64.8987537,48.2157895 L61.4529887,48.9973684 L63.7952081,51.7447368 L62.1736716,53 L60.3944857,49.8263158 L58.6378211,53 L57.0162846,51.7684211 L59.3359827,48.9973684 L55.912739,48.2157895 L56.5208151,46.2736842 L59.7188455,47.7184211 L59.3810254,44 L61.407946,44 L61.0701259,47.7421053 L64.2681562,46.25 L64.8987537,48.2157895 Z M75.5363334,48.2157895 L72.0905683,48.9973684 L74.4327877,51.7447368 L72.8112512,53 L71.0320653,49.8263158 L69.2754008,53 L67.6538643,51.7684211 L69.9735623,48.9973684 L66.5503186,48.2157895 L67.1583948,46.2736842 L70.3564251,47.7184211 L70.018605,44 L72.0455256,44 L71.7077055,47.7421053 L74.9057359,46.25 L75.5363334,48.2157895 Z M86.173913,48.2157895 L82.728148,48.9973684 L85.0703674,51.7447368 L83.4488309,53 L81.669645,49.8263158 L79.9129804,53 L78.2914439,51.7684211 L80.611142,48.9973684 L77.1878983,48.2157895 L77.7959745,46.2736842 L80.9940048,47.7184211 L80.6561847,44 L82.6831053,44 L82.3452852,47.7421053 L85.5433155,46.25 L86.173913,48.2157895 Z" id="******" fill="url(#linearGradient-1)"></path>
            <rect id="Rectangle-2" fill="#CCEDF0" x="50" y="4" width="12" height="1" rx="0.5"></rect>
            <circle id="Oval" fill="#CCEDF0" cx="56" cy="120" r="6"></circle>
        </g>
    </g>
</svg>