<?xml version="1.0"?>
<!-- This Source Code Form is subject to the terms of the Mozilla Public
   - License, v. 2.0. If a copy of the MPL was not distributed with this
   - file, You can obtain one at http://mozilla.org/MPL/2.0/. -->
<svg xmlns="http://www.w3.org/2000/svg" xmlns:xlink="http://www.w3.org/1999/xlink" width="32" height="32" viewBox="0 0 32 32">
  <style>
    path, rect {
      fill: #505050;
    }

    #screen {
      fill-opacity: .1;
    }

    #icon {
      fill-opacity: .8;
    }
  </style>

  <path id="body" d="M2,7c0-1.1,0.9-2,2-2h24c1.1,0,2,0.9,2,2v16H2V7z M4,21h24V7H4V21z M30,26H2c-1.1,0-2-0.9-2-2h32 C32,24,31.1,26,30,26z"/>
  <rect id="screen" x="4" y="7" width="24" height="14"/>
  <path id="icon" d="M20.6,17.5L20.6,17.5c-0.1-0.1-0.1-0.3-0.2-0.5c0-0.2-0.1-0.4-0.2-0.5l0,0c0,0-0.1,0-0.1-0.1 c0,0-0.1,0-0.1,0c0.2-0.6,0.2-1.3-0.1-1.9c-0.3-0.6-0.6-1.2-1.1-1.7c-0.5-0.4-0.7-1-0.8-1.7c0-1.1,0.1-3.1-1.8-3.1 c-0.1,0-0.2,0-0.2,0c-2.1,0.2-1.6,2.4-1.6,3.2c0,0.5-0.2,1.1-0.5,1.5c-0.6,0.7-1.1,1.4-1.4,2.3c-0.1,0.4-0.2,0.8-0.1,1.3 c0,0,0,0-0.1,0.1c-0.1,0.1-0.2,0.3-0.3,0.4c-0.1,0.1-0.3,0.2-0.4,0.2c-0.2,0.1-0.3,0.2-0.4,0.3l0,0c0,0.1-0.1,0.2-0.1,0.3 c0,0.1,0,0.2,0,0.3c0,0.2,0,0.3,0,0.5C11,18.5,11,18.8,11.1,19c0.1,0.2,0.3,0.3,0.5,0.3c0.5,0,0.9,0.1,1.4,0.3l0,0 c0.4,0.2,0.9,0.3,1.3,0.2c0.3-0.1,0.5-0.2,0.6-0.5c0.3,0,0.6-0.1,1.1-0.2c0.4,0,0.8,0.1,1.3,0.1c0,0.1,0,0.1,0.1,0.2l0,0 c0.2,0.4,0.6,0.6,1,0.5c0.5-0.1,0.9-0.3,1.1-0.7l0,0c0.4-0.3,0.8-0.6,1.2-0.8c0.2-0.1,0.3-0.2,0.3-0.4C21,17.9,20.8,17.6,20.6,17.5z M15.9,10.4c0-0.1,0-0.3,0.1-0.4c0-0.1,0.1-0.2,0.2-0.3c0.1-0.1,0.2-0.1,0.3-0.1h0c0.1,0,0.2,0,0.3,0.1C16.9,9.8,17,9.9,17,10 c0.1,0.1,0.1,0.2,0.1,0.4c0,0,0,0,0,0c0,0.1,0,0.3-0.1,0.4c0,0.1-0.1,0.1-0.1,0.2c0,0,0,0,0,0c-0.1,0-0.1,0-0.1-0.1l-0.1,0 c0,0,0.1-0.1,0.1-0.1c0-0.1,0-0.1,0-0.2c0,0,0,0,0,0c0-0.1,0-0.1,0-0.2c0-0.1-0.1-0.1-0.1-0.2c0,0-0.1-0.1-0.1-0.1h0 c0,0-0.1,0-0.1,0.1c0,0-0.1,0.1-0.1,0.1c0,0.1,0,0.1,0,0.2v0c0,0,0,0.1,0,0.1c-0.1,0-0.2-0.1-0.3-0.1C15.9,10.5,15.9,10.5,15.9,10.4 L15.9,10.4L15.9,10.4z M15.7,10.9L15.7,10.9c0.2,0,0.3,0.1,0.5,0.2c0.1,0.1,0.2,0.1,0.3,0.1c0.1,0,0.1,0,0.3,0.1s0.1,0.1,0.1,0.1 c-0.1,0.1-0.2,0.2-0.4,0.3c-0.1,0-0.2,0.1-0.3,0.2c0,0-0.1,0-0.1,0.1C15.9,12,15.8,12,15.7,12h0c-0.1,0-0.2,0-0.2-0.1 c0,0-0.1,0-0.1-0.1c-0.1-0.1-0.2-0.1-0.3-0.2c-0.1,0-0.2-0.1-0.2-0.2l0.3-0.2c0,0,0.1-0.1,0.1-0.1c0.1-0.1,0.2-0.2,0.3-0.2 C15.6,10.9,15.7,10.9,15.7,10.9z M14.6,10.5c0-0.1,0-0.2,0-0.3c0-0.1,0.1-0.2,0.1-0.3c0.1-0.1,0.1-0.1,0.2-0.1h0 c0.1,0,0.1,0,0.2,0.1c0.1,0.1,0.1,0.1,0.2,0.2c0,0.1,0.1,0.2,0.1,0.3l0,0c0,0,0,0.1,0,0.1l0,0c-0.1,0-0.1,0.1-0.2,0.1 c0,0,0-0.1,0-0.1v0c0-0.1,0-0.1,0-0.2c0,0,0-0.1-0.1-0.1c0,0-0.1,0-0.1,0h0c0,0-0.1,0-0.1,0.1c0,0-0.1,0.1-0.1,0.1 c0,0.1,0,0.1,0,0.2v0c0,0.1,0,0.1,0,0.2c0,0,0,0.1,0.1,0.1l0,0l-0.1,0.1c0,0,0,0-0.1,0c-0.1-0.1-0.1-0.1-0.1-0.2 C14.6,10.7,14.6,10.6,14.6,10.5L14.6,10.5L14.6,10.5z M14.1,19.2c-0.1,0-0.1,0-0.2,0c-0.3,0-0.5-0.1-0.7-0.2 c-0.4-0.2-0.8-0.3-1.3-0.3c-0.1,0-0.2,0-0.3,0c0-0.1,0-0.1,0.1-0.2c0.1-0.2,0.1-0.5,0-0.7l0-0.1c0-0.1,0-0.1,0-0.2c0,0,0.1,0,0.1,0 l0.1,0c0.2-0.1,0.4-0.2,0.6-0.3c0.1-0.1,0.2-0.2,0.2-0.3c0-0.1,0.1-0.1,0.1-0.2c0.1,0,0.1,0.1,0.2,0.2l0.4,0.8 c0.1,0.2,0.3,0.5,0.5,0.7c0.1,0.1,0.1,0.2,0.2,0.2c0.1,0.1,0.2,0.3,0.3,0.5C14.3,19.1,14.2,19.2,14.1,19.2 C14.1,19.2,14.1,19.2,14.1,19.2L14.1,19.2z M17.7,16.6c-0.1,0.3-0.1,0.6-0.1,0.9l0,0c0,0,0,0.1,0,0.1c-0.5,0.3-1,0.5-1.6,0.6 c-0.5,0-0.9-0.1-1.3-0.4c0.1,0,0.1-0.1,0.2-0.2c0-0.2,0-0.4-0.2-0.6c-0.3-0.3-0.6-0.6-0.9-0.8l0,0c-0.3-0.2-0.5-0.4-0.6-0.7 c-0.1-0.3-0.1-0.6,0-0.8c0.1-0.5,0.4-1,0.6-1.4c0.1,0,0,0.1-0.2,0.5c-0.4,0.7-0.4,1.6,0.2,2.2c0-0.6,0.1-1.2,0.3-1.8 c0.2-0.7,0.6-1.5,0.7-2.2c0.1,0,0.2,0.1,0.2,0.1c0.2,0.2,0.4,0.4,0.7,0.4c0.3-0.1,0.7-0.2,1-0.4c0.2-0.1,0.4-0.1,0.6-0.2 c0.2,0.6,0.5,1.3,0.8,1.9c0.3,0.5,0.5,1,0.6,1.5c0.1,0,0.2,0,0.3,0c0.2-0.7,0-1.5-0.6-2c-0.1-0.1-0.1-0.2-0.1-0.2 c0.4,0.4,0.7,0.9,0.8,1.4c0.1,0.3,0.1,0.6,0,0.8l0.1,0c0.5,0.3,0.7,0.5,0.6,0.8h-0.1c0.1-0.2-0.1-0.4-0.5-0.6 c-0.5-0.2-0.8-0.2-0.9,0.2c0,0,0,0,0,0.1c0,0-0.1,0-0.1,0C17.9,16.2,17.8,16.4,17.7,16.6z M20.1,18.2c-0.4,0.2-0.8,0.4-1.1,0.8 c-0.2,0.2-0.4,0.4-0.7,0.4c-0.1,0-0.2-0.1-0.3-0.2c0-0.2,0-0.3,0.1-0.5c0-0.1,0.1-0.2,0.1-0.3c0.1-0.3,0.1-0.5,0.2-0.8 c0-0.1,0-0.2,0-0.4c0.1,0,0.2,0.1,0.2,0.1c0.1,0,0.2,0,0.2,0c0.4,0,0.7-0.2,1-0.4c0,0.1,0,0.1,0,0.2l0,0.1c0,0.3,0.1,0.5,0.3,0.7 c0,0,0.1,0.1,0.1,0.1C20.2,18.1,20.1,18.1,20.1,18.2L20.1,18.2z"/>

</svg>
