<svg xmlns="http://www.w3.org/2000/svg" width="16" height="16" viewBox="0 0 16 16"><circle fill="#a6a6a6" cx="8" cy="8" r="7"/><path fill="#fff" d="M6.316 2.74c-.018 0-.037 0-.054.008-.004.002-.01.006-.013.01h.017c.018-.004.03-.016.05-.017zm.023.86c.022-.03-.033-.053-.063-.05.008-.036.052-.054.04-.098-.01-.046-.066-.037-.096-.012-.025.023-.04.063-.062.09-.013.015-.036.02-.045.038-.008.017.002.046 0 .065.037.005.076-.006.103-.032l.017-.007c-.004.003-.006.01-.008.014.018.022.097.016.114-.007zm.036-1.227c-.002.054.05.06.09.08-.013.032-.055.03-.075.056-.023.03.02.057.043.07.042.027.018.057.01.094-.01.052.1.038.125.037.042 0 .11.006.15-.014.043-.024.066-.077.11-.103.04-.022.092-.034.133-.02.045.016.04.072.075.096.042.028.087.037.123-.006.022-.027.073-.06.075-.09.004-.05.02-.09.075-.102.045-.01.035.035.067.043.07.018.103-.196.18-.133.017.015.022.073.053.068.03-.005.032-.05.066-.052.01.03-.058.07-.067.103.042-.034.063-.03.11-.034.014.033-.08.087-.105.092-.035.01-.056-.01-.082.008-.02.014-.05.013-.074.015-.035.005-.1.05-.1.09 0 .014.013.048 0 .06-.012.013-.04 0-.043-.012-.03.044-.068-.033-.093.03.04.01.076.047.12.058.044.01.087.022.13.034.072.022.18-.065.234-.107.053-.04.12-.127.133-.19.015-.07.09-.148.075-.216-.014-.064-.024-.094.048-.117.03-.01.105-.026.115-.06.016-.053-.147-.04-.17-.05-.083-.038-.12-.08-.213-.042-.05.02-.098.035-.15.05-.026.006-.053.008-.067.03-.006.01-.014.017-.024.022-.042.017.01-.064.016-.07.013-.015.036-.064-.008-.053-.065.015-.113.115-.183.12-.053.004-.036-.043-.022-.07.026-.05-.05-.055-.083-.055-.048 0-.083.027-.13.032-.04.004-.09.012-.133.01-.085-.002-.14.048-.225.02-.09-.03-.184.045-.27.055-.03.003-.07-.003-.082.03-.01.03 0 .072.022.093l.007-.006c-.02.02-.022.046-.05.056-.026.01-.053.044-.067.068-.01.02-.04.094.012.055.038-.03.06-.083.12-.072zM3.184 7.108c-.09-.066-.297-.082-.272-.236.016-.094.113-.167.19-.213.103-.06.218-.063.333-.053.028.003.08-.002.095.02.008.01.024.018.036.022.03.008.063.01.094.015.047.01.08.05.128.016.055-.037.064-.045.13-.037.06.007.094-.038.144-.034.015 0 .03.003.04.008.006-.017.013-.032.024-.035.024-.007.08.053.104.058.066.015.062-.03.066-.078.033-.006.05.04.078.01 0 .01.005.024.005.033.005.004.012.004.018 0 .003-.006.004-.01.002-.017.016.005.024-.006.026-.025.012 0 .03-.006.042-.004.01-.035.03-.08.004-.11l.02-.005c0-.034.023-.05.024-.076-.036-.006-.075-.004-.112-.003.022-.02.074-.064.08-.09.01-.05-.053-.078-.048-.135.006.03.04.1.07.11.072.023.05-.048.056-.085.018-.117.122-.02.124.04.03-.07.107.01.072.07-.017.028-.04.017-.018.055.014.027.036.028.068.02.007-.015.014-.033.014-.052.055-.017.09.048.06.087.04-.022.08-.043.124-.054-.026-.09-.052-.178-.036-.274.004-.022.007-.046.023-.062.02-.02-.005-.013-.007-.027-.006-.04.04-.084.055-.122-.045-.01-.003-.102.028-.118.034-.017.132.01.14-.016.02.01.038.027.06.027.056.002.092.003.13.047.018.023.046.074.08.078 0 .038.042.066-.003.098-.036.025-.085.02-.1.067-.01.03-.04.044.005.065.02.01.042.012.063.012.005.03.02.068.057.063.073-.01.09-.1.147-.132.095-.05.08.166.162.112.02-.013.02-.068.03-.09.018-.043.04-.088.07-.127.036-.05.082-.102.066-.167-.01-.036-.078-.05-.11-.076-.037-.03-.074-.064-.096-.107-.014-.026-.022-.035 0-.048.012-.007.008-.02.004-.03-.024-.05-.088-.14 0-.17.02-.008.063-.072.066-.097.005-.042-.06-.08-.03-.122.02-.03.073-.05.1-.082.013-.015.027-.028.047-.032 0-.017.005-.036.02-.047.023-.018.06-.01.09-.018.044-.014.064-.06.1-.087.03-.022.062-.014.094-.03.018-.008.025-.026.04-.034.043-.02.09.012.11.047.043.084.1.214.225.18.05-.014.09-.056.105-.104.015-.047-.003-.085 0-.13.004-.08.082-.13.09-.21-.058 0-.027-.036-.047-.07-.022-.038-.07-.01-.104-.016.033-.08.033-.11-.046-.148-.035-.017-.092-.097-.12-.094.023-.03.074.02.09.034.035.033.065.048.114.052-.014-.02-.02-.06-.012-.083.01-.022-.013-.045-.01-.073.054.07.045.152.077.23.013.033.045.055.06.09.017.042.005.04.043.067.022.015.03.043.034.068.007.044.023.025.047.05.013.015.05.017.042.048-.006.022-.02.04-.024.063-.01.065.12-.025.133-.034.027-.02.072-.025.094-.05.023-.026.018-.064.042-.088.03-.03.058-.01.093-.016.04-.006.076-.04.107-.064.065-.055.106-.115.16-.178-.023.006-.104.065-.11.01-.03 0-.1-.005-.11-.04-.01-.024-.007-.052-.007-.077 0-.027-.034-.018-.055-.032-.044-.027-.066-.08-.112-.103-.074-.04-.118-.102-.163-.17-.025-.038-.116-.117-.11-.164.005-.03.03-.064.028-.095 0-.028-.022-.043-.02-.074.004-.036-.083-.1-.007-.106.024-.002.028-.03.055-.047.03-.017.023-.033.055-.024.053.016.09-.042.125-.073.06-.054-.037-.055-.042-.096-.005-.04-.028-.07-.035-.12-.004-.034-.037-.02-.056-.01-.025.01-.05-.007-.076-.012-.022-.005-.04-.043-.07-.03-.02.01-.018.034-.048.03-.022 0-.036-.022-.057-.026-.033-.005-.003.027-.04.03-.027.002-.113-.034-.115 0-.027-.046-.038.032-.066.04-.033.01-.066 0-.098.013-.07.028-.046.097.02.108.053.01-.016.046.002.082.016.032.02.054.055.067.056.02.117.037.098.11-.026.093-.09.18-.18.222-.086.04-.11-.07-.175-.097-.04-.017-.085-.01-.128-.006-.007.01.06.03.07.05.02.04-.034.034-.038.064-.004.025-.037.043-.02.068-.018-.023-.054.008-.067.022-.02.02-.015.033-.007.058.016.05-.06.104-.107.098-.038-.006-.074-.003-.11-.02-.044-.022-.03-.01-.038-.058-.01-.046-.073-.066-.035-.123.027-.043.014-.04.01-.08-.007-.04.012-.047.045-.053.037-.007.053-.072.074-.103.005-.007.028-.065-.008-.05-.02.01-.005.034-.035.038-.023.004-.045-.01-.067-.01-.026 0-.053.012-.076-.004.012-.014.096-.084.03-.098-.027-.006-.006.038-.04.032-.008.035-.05.032-.07.054.008-.037.086-.065.06-.095.056-.048.068-.057-.008-.084-.12-.042-.11-.165-.03-.24.075-.067.2-.153.272-.04.078.12.127.033.19-.045-.02-.008 0-.014-.008-.04-.07.028-.134-.064-.085-.12.028-.032.074-.023.113-.033.035-.01.066-.043.08-.075-.03.008-.025-.01-.014-.023-.02-.003-.038-.01-.053-.016-.043-.015-.04-.048-.085-.054-.108-.016.112-.14.005-.14-.035 0-.065-.053-.09-.043-.02.007-.024.02-.045.012-.015-.007-.033-.02-.05-.01-.04.024-.047-.005-.084.006-.03.01-.048.04-.083.032.035-.048.08-.088.11-.138.02-.034.047-.065.08-.086.02-.01.073-.022.076-.048.006-.043-.02-.04-.05-.022-.077.046-.157.095-.232.144-.046.03-.08.054-.137.046-.043-.007-.06.04-.095.037-.017-.066-.387.177-.432.198-.072.032-.153.087-.23.106-.032.008-.098.082-.094 0-.04-.005-.07.035-.096.055-.038.028-.082.046-.123.07-.086.057-.168.124-.248.187-.077.06-.154.13-.235.184-.028.02-.13.072-.127.11.072.015.318-.293.387-.21.018.02-.104.083-.124.095-.017.01-.037.008-.053.017-.022.013-.036.035-.057.05-.055.034-.1.08-.142.13-.027.036-.048.084-.08.118.005-.036-.002-.062 0-.097-.04.026-.058.07-.114.058-.05-.01-.092.04-.128.07-.085.064-.142.136-.213.212-.04.043-.082.073-.107.126-.027.057-.064.108-.1.16-.065.098-.14.187-.206.284-.133.2-.22.427-.33.64-.057.11-.11.217-.134.34-.02.106-.02.214-.018.322.06-.047.057.05.04.08-.022.045-.03.096-.037.146-.01.065-.022.13-.022.196 0 .056-.017.108-.018.162-.02-.016.024-.084-.016-.074-.02.005-.02.034-.025.05-.015.05-.085.046-.096.105-.006.035-.01.056-.034.085-.018.022 0 .032.003.054.01.05-.058.123-.04.165.017.04.005.087.024.126.01.02.032.047.023.072-.042.008.012.106.016.136.006.05.05.203.097.225.06.09.14.218.245.264.074.032.1-.064.142-.104.052-.052.12-.085.19-.11.057-.02.3-.09.184-.175zm.102 3.285c.012-.02.003-.07-.02-.088-.05-.044-.072.06-.038.09.013.034.043.023.058-.002zM3.5 7.37c-.015-.014-.025-.006-.026-.033 0-.024.003-.07-.03-.04-.008.002.004.007-.01.012-.008.002-.015-.005-.02-.008-.017-.007-.027-.008-.04.01-.01.012-.01.026-.024.036l-.025.01c-.01.002-.035.02-.036.03-.005.015.018.026.034.03.012.01.03.017.042.026.013.01.034.025.05.03.035.02.09.04.118 0 .008-.017.014-.03.003-.043-.01-.014-.026-.018-.03-.03-.005-.013.006-.02-.007-.03zm4.745.754c-.02 0-.052.013-.067.026-.03.026.034.04.058.048.028.016.067.024.094.04.023.017.038.04.064.05.032.016.075.023.11.032.014.005.037.004.057.008.023.013.032.033.05.047.03.028.074.035.115.033.038.004.067.01.1.002.04-.01.068.01.105.01.015 0 .03-.012.043-.01.02 0 .02.007.03.023.016.023.056.058.085.06.017 0 .03-.004.046 0 .017.01.024.01.036.02.02.01.038.016.047.032.016.028.015.06.04.08.016.014.034.028.052.04.01.012 0 .01.018.01.01.002.03.002.042-.002.05-.003.023-.073.007-.096-.01-.02-.02-.036-.015-.055.003-.023.014-.04 0-.058-.01-.012-.02-.018-.03-.024-.007-.008-.01-.016-.016-.028-.015-.02-.044-.025-.063-.043-.03-.033-.048-.08-.088-.11-.022-.012-.042-.002-.068-.013-.01-.007-.017-.014-.033-.02-.015-.004-.028 0-.04-.002-.03-.002-.055-.027-.082-.025-.03.004-.037.037-.055.055-.015.013-.033.013-.04-.008 0-.027.01-.043.023-.06.02-.023 0-.036-.03-.038-.035 0-.042.028-.057.06-.024.032-.04.01-.072.004-.022 0-.038.01-.06 0-.014-.004-.017-.016-.028-.023-.017-.008-.03-.005-.04.003-.018.004-.018.004-.035-.005-.015-.006-.02-.018-.037-.022-.03-.006-.06.02-.085.012-.01-.006-.02-.022-.035-.027-.017-.01-.014 0-.025.012-.018.018-.044.024-.062.01-.022-.016-.024-.043-.058-.048zm1.127 1.182c.016-.002.024-.018.037-.016.015-.003.007.013.018.023.01.01.02.01.03.01.017.002.052.004.06-.012.007-.024-.035-.03-.046-.05-.01-.028.013-.056.02-.08.013-.035-.03-.05-.025-.077 0-.03.018-.04.012-.067-.006-.02-.023-.044-.036-.06-.012-.015-.035-.03-.033-.053.003-.024.047-.023.026-.052-.012-.024-.043-.02-.072-.023-.01 0-.02 0-.03-.01-.01-.013-.005-.02-.005-.03-.007-.027-.027-.037-.05-.048-.01-.005-.02-.01-.026-.022-.004-.012.008-.016.004-.027-.012-.025-.06.01-.08.002-.013-.002-.01-.015-.02-.03l-.024-.01c-.033-.015-.045.012-.04.04.015.06.06.1.055.16.002.026.006.038.015.06.008.034.016.05.002.082-.024.018-.002.04.006.063.004.03.012.055.01.088-.005.06-.023.12-.018.18.003.025 0 .048.01.072.003.03.028.042.054.06.023.02.138.09.104.005-.01-.02-.025-.046-.03-.068-.008-.023.02-.04.02-.063.004-.026-.016-.035.022-.042.008-.006.02 0 .026-.002zM8.182 2.1c.03-.007.06.002.09-.01.015-.005.063-.022.06-.042-.005-.037-.162-.013-.188-.002-.007.023.016.04.037.047l.002.007zm.754 6.688c-.006-.013 0-.025 0-.038-.003-.02-.01-.027-.006-.05.007-.01.007-.03.004-.045-.006-.012-.016-.022-.025-.03 0-.007-.004-.017-.01-.023-.013-.012-.025.006-.038.012-.01.01-.03.015-.032.025-.01.014-.004.026-.004.04l.003.014c-.023.022-.002.08-.005.102 0 .025-.035.095.012.074.013-.006.023-.015.035-.02.015-.01.035-.01.054-.016.006 0 .04-.003.04-.01 0-.012-.027-.02-.03-.036zm-.89 1.264c.038.02.107-.02.145-.03.048-.016.123-.066.172-.038.02.01.03.034.05.043.025.01.056 0 .082-.005.026-.006.057-.01.082-.022.02-.01.035-.03.054-.043.048-.037.09-.002.143-.01.03-.004.06-.02.09-.027.02-.005.06-.005.076-.02.017-.02.01-.058.01-.08-.002-.032 0-.064-.01-.093-.023-.057-.102-.124-.02-.17.016-.1-.1-.082-.134-.154-.022-.047-.03-.083-.09-.088-.053-.005-.085.023-.13.04-.052.02-.09.003-.135-.022-.026-.015-.082-.05-.093-.004-.01.04.028.078-.003.114-.028.032-.076.046-.116.055-.085.017-.153.083-.216.14l.007.006c-.025 0-.062.065-.063.085l.03.01c0 .034.037.01.04-.013.008.002.016.007.024.008.008.002.023 0 .028.004.017.006.02.022.04.024-.01.052 0 .107-.025.156-.016.03-.095.104-.038.132zM8.45 2.36c.03.032.066.04.06.09.037.006.06.02.082-.012.014-.02.035-.036.058-.044.027-.01.14-.01.136.037-.003.024-.017.044-.02.067-.006.032.03.01.043.017-.015.012-.036.02-.057.024.01.006.015.014.016.024-.027.006-.04.078-.085.092-.027.01-.068-.01-.096-.013-.033-.003-.058-.013-.09-.015-.032-.002-.006-.044-.046-.036-.007.027.007.098.012.126.005.035.035.055.07.06.048.01.07.025.112.05.032.017.07.006.104.01.024 0 .044.01.06.025-.003.012-.01.03-.006.042.007.016.058-.002.07-.003.035-.005.07-.044.102-.04.013.003.072.02.07.036-.032-.013-.053.026-.078.005-.02-.018-.08-.002-.042.025.003.003.013.078.013.086-.002.03-.053.06-.05.077.008 0 .054.004.063.013.003-.012-.005-.017.022-.025.02-.006.046-.008.066.002.01.035-.016.07.032.062.045-.01.065.02.112-.01.03-.02.062-.016.087.01.036.034-.034.08.006.114.016.013.03.053.045.06.01.005.07-.016.08-.02.02.033.037-.02.052-.022.006-.022.033-.047.06-.05.04-.004.04.003.067.022.077.054.066-.078.107-.112.073-.06.11-.117.16-.194.04-.062.094-.077.164-.088.056-.01.14-.022.164-.082.027-.07-.038-.108-.094-.13-.063-.02-.134-.045-.106-.125.032-.093.004-.147-.095-.177-.21-.065-.397-.174-.61-.234-.186-.053-.376-.072-.568-.082-.086-.03-.267-.033-.32.04-.033.047.01.088.005.137-.005.06.024.12.065.163zm3.275 9.27c.002.005 0 .014 0 .02.04 0 .056.036.098.023.042-.012.067-.053.033-.087-.03-.03-.055-.054-.098-.046-.052.01-.04.05-.033.09zm1.34-1.336c0-.01-.003-.017-.005-.026-.04-.012-.066.03-.104 0-.072.048.005.145-.113.14.02.024.02.052.01.08-.016.046-.028.042-.058.048-.065.01-.095-.03-.115-.084-.063.002-.15.1-.2.13-.012.008-.035.03-.05.038l-.05.027c-.033.017-.105.04-.11.078-.016-.003-.042.007-.06.005-.005.008-.005.017 0 .026.078.013.12-.013.184-.04.068-.032.14-.025.205-.05.032-.01.033-.044.083-.024.022.01.047.042.052.064.01.05-.042.124-.094.127-.012-.03.007-.063.012-.088-.07-.023-.182.075-.2.133.07.015.1.12.06.176-.01.014-.026.032-.05.04-.04.012-.06-.025-.1.004-.05.04.005.146-.024.206-.023.046-.06.063-.094.095-.022.022-.035.047-.064.067-.04.026-.132.082-.124.136.084.03.26-.12.333-.168.045-.03.074-.08.12-.11.055-.033.125-.05.16-.11.02-.033.003-.063.015-.097.01-.03.032-.04.05-.063.038-.044.07-.058.113-.094.05-.045.04-.117.063-.178.022-.053.062-.094.09-.144.045-.08.162-.267.112-.356-.012.01-.033.007-.044.012zm1.008-2.56c-.025-.047.013-.185.013-.242 0-.105-.033-.184-.047-.282-.008-.092-.02-.336.013-.42.047-.116-.184-.314-.197-.44-.012-.11-.074-.215-.164-.278-.036-.027-.115-.39-.16-.373-.024.01.023.09.02.115-.013.088-.057 0-.103.02-.087.035-.178.118-.19.203-.04.315-.262-.01-.244-.024.05-.038.067-.026.125-.034.065-.023-.035-.07.066-.08-.024-.064.03-.085.004-.136-.04-.075-.066-.066-.028-.147.017-.044-.084-.183-.09-.236-.01-.05-.01-.12-.017-.177-.004-.037.056-.072.045-.1-.002-.104.02-.215-.016-.315-.025-.068-.055-.158-.098-.216-.015-.02-.06-.123-.066-.152-.012-.064-.04-.04-.076-.065-.02-.025-.11-.108-.135-.12-.024-.01-.196-.168-.2-.18-.015-.046-.11-.08-.1-.13.015-.074-.242-.266-.314-.28-.047-.007.142.22.14.214.004.012.122.163.122.163.027.01.092.194.09.218-.007.07-.188-.114-.2-.14-.09-.108-.25-.196-.353-.27-.072-.066-.036-.104-.16-.16-.045-.022-.168-.123-.207-.126-.046-.002.007.096.008.107.007.07.083.076.13.122.035.038.068.085.036.127 0 0-.057.103-.06.094.016.044.147.14.18.177-.006-.008.17.225.186.1.006-.044-.044-.098-.038-.137.005-.024.204.227.215.25.048.132.044-.02.094-.005.04.013.152.152.06.158-.142.01.025.132.065.15.08.04.138.134.223.17.133.053.105.15.172.247.022.03-.383 0-.414.018-.053.043.203.33.204.373.002.09.053.156.067.246.008.082-.002.19.052.258.044.04.085-.068.155-.003.026.012.062.04.07.063.024.062.158.44-.003.413-.07-.012-.03.3-.025.344.02.098.06.09.035.214.003.103-.08.155-.14.23-.026.033-.044.073-.057.116-.033-.032-.048-.083-.094-.1-.048-.02-.157.04-.2.062-.105.053-.028.15-.07.232-.03.06-.118.09-.176.12-.07.037-.164.075-.233.017-.058-.048-.032-.145-.094-.187-.07-.047-.077.058-.093.1-.03.08-.122.106-.1.205.01.04.032.078.04.12.01.05-.016.096-.02.147-.005.087.086.107.11.178.02.064 0 .163-.072.187-.075.027-.16-.042-.234-.05-.075-.008-.17.013-.185.1-.012.075.065.137.028.215-.016.033-.044.06-.063.09-.035.05-.055.107-.087.158.038 0 .034-.023.07-.016.035.008.068-.03.1-.04.005.023.002.048.005.072.025.008.05-.002.074-.01.002.02-.007.044 0 .065.008.017.03.023.04.037.032.037-.006.098-.028.13-.063.092-.17.143-.238.23-.066.08-.07.176-.12.263-.017.03-.033.07.01.085.01-.016.026-.03.046-.03.03 0 .02.023.035.04.064.083.132-.052.16-.09.027-.043.142-.106.173-.036.025.052-.004.127-.028.175.04.02.03.05.04.085.012.05.057.082.057.137 0 .066-.144.197-.087.247.07.062.153-.11.18-.147.053-.07.172-.08.202-.168.032-.1.02-.16.152-.162.056 0 .096-.036.148-.047.058-.01.083-.016.12-.06.052-.063.1.012.1.062.003.05-.02.115.012.16.04.057.08-.017.12-.053-.003.037.047.06.077.07.044-.03.073-.08.12-.11.024-.012.05-.017.075-.02.007.04.014.084.05.104.053.03-.012.06.058.09.085.034.114.12.155.19.02.033.2-.162.27-.17.228-.025.347-.324.432-.5.122-.254.178-.535.21-.796.077-.16.11-.456.077-.643-.02-.114.046-.272-.012-.38zm-2.072 3.798c.006-.028.065-.132.01-.147-.02-.005-.036.025-.054.03-.025.008-.05-.007-.072.004-.02.01-.04.042-.05.06-.015.022-.01.03.014.043.024.013.055.02.068.045.012.023.006.054.003.078 0 0 .004-.005.005-.01h.015l-.005.01c.063.01.058-.073.065-.114zm.74-1.25c0 .03.034.026.055.018.02-.006.033-.023.046-.038.018-.023.028-.046.013-.073-.016-.03-.026-.05-.034-.082-.013.007-.028.02-.042.023-.013.006-.015.002-.03 0-.037 0-.03.028-.045.05-.013.02-.042.03-.03.055.007.02.04.037.058.046l.005-.005c0 .002-.002.003-.003.005h.007zM9.18 12.427c.037-.065.102-.106.16-.15.07-.055.132-.118.188-.186-.033-.008-.035-.04-.056-.06-.03-.03-.08-.01-.086-.057-.007-.042-.042-.05-.075-.068-.076-.04-.108-.115-.17-.168-.068-.06-.16-.04-.244-.057-.073-.014-.147-.13-.225-.08-.048.03-.07.11-.037.158.026.04.072.058.09.103-.027.025-.033.04 0 .064.038.027.112.055.093.114-.01.033-.036.064-.07.07-.025.005-.086-.01-.073.036-.027-.074-.105.042-.148-.02-.034-.048-.056-.092-.11-.125-.07-.042.028-.084.017-.15-.018-.094-.134-.068-.175-.138-.025-.04.01-.072.025-.107.015-.036.058-.007.08.003.074.035.183.022.245-.03.03-.023.092-.134.012-.134-.056 0-.1.05-.15.052-.01-.063-.038-.17.03-.212.06-.038.188-.082.134-.18-.02-.034-.054.022-.083-.003-.01-.01-.002-.032.002-.043-.02-.017-.037-.038-.046-.062-.044-.106.084-.19.03-.3-.023-.048-.06-.076-.103-.105-.043-.03-.045-.068-.06-.113-.01-.025-.05-.084-.085-.07-.03.013-.04.066-.064.088-.053.052-.165.072-.236.055-.058-.013-.055-.035-.082-.073-.01-.014-.03-.015-.044-.02-.025-.01-.028-.034-.034-.057-.024-.087-.196.02-.222-.1-.006-.03.004-.076-.037-.082-.046-.008-.048-.052-.048-.09 0-.03.002-.07-.03-.088-.04-.022-.05-.012-.063-.058-.016-.06-.056.002-.09-.01-.07-.028-.058.007-.115.037-.098.05-.11-.19-.142-.237-.065-.09-.05.11-.093.136-.04.022-.083-.03-.098-.062-.008-.018-.013-.038-.024-.056-.017-.026-.047-.037-.063-.063-.014-.024-.035-.05-.045-.076-.01-.022-.007-.05-.024-.068-.02-.023.005-.06.02-.09.026-.01.064.01.083.027.045.04.116.21.196.178-.016-.02-.005-.048-.017-.072-.014-.025-.04-.04-.058-.06-.04-.048-.086-.096-.114-.154-.024-.05-.036-.103-.084-.138-.04-.03-.117-.057-.1-.12.033.006.056.03.08.05.034.03.078.046.12.066.073.036.16.06.222.116.04.033.02.107.068.148.036.03.09.13.158.09.024-.014.035-.043.06-.06.027-.02.07-.036.102-.05.018-.01.05-.006.065-.02.022-.024-.034-.09-.047-.107-.05-.066-.096-.137-.164-.186-.035-.025-.07-.052-.11-.07-.02-.008-.06-.007-.063-.037.01.007.017.005.02-.006-.002-.02-.03-.02-.045-.024-.033-.01-.056-.01-.07-.037-.016-.035-.075-.034-.106-.042-.048-.012-.085-.048-.13-.066-.054-.02-.094 0-.147.013-.01.002-.027.033-.044.06-.038-.01-.08-.006-.11.02-.048.036-.076.092-.113.138-.016.02-.04.038-.06.03-.005 0-.003-.006-.006-.008.028-.205.044-.412.025-.37-.037.08-.065.135-.093.193-.043-.018-.09-.02-.11.025-.018.047.007.108-.023.15-.006.01-.017.01-.027.014-.002-.005-.012-.018-.01-.02-.01.016-.01.02-.02.034-.028.002-.065-.01-.1-.022 0 0 0-.003-.002-.003l-.002.002c-.044-.015-.09-.03-.13-.015-.078.028-.08.14-.13.21-.076.105-.27.06-.303-.065l.082-.102c-.042-.108-.156-.183-.27-.18-.033 0-.067.007-.097-.007-.03-.015-.047-.047-.074-.067-.083-.06-.193.02-.262.098-.12.02-.228.087-.302.183l-.14-.01c.026.075-.065.137-.107.207-.05.085-.025.184.026.275-.007.014-.01.03-.024.035-.06.032-.044.05-.027.116.015.056.01.16-.004.217-.01.044-.053.15-.106.125-.028-.014-.057-.025-.083 0-.012.012-.02.026-.024.04-.017.002-.035.004-.052.008-.033.007-.068.015-.1 0-.033-.013-.077-.04-.113-.028-.03.01-.09.037-.104.07-.006.013.013.05.013.07 0 .033.026.084.015.115-.024-.012-.06-.016-.077-.04-.016-.022-.04-.017-.057-.04-.004.04-.018.092-.063.102-.044.01-.086-.025-.13-.013-.117.03.07.175.094.203.042.047.055.11.086.162.034.058.103.077.143.128.034.043.04.1.09.133.052.037.1.07.122.133.023-.023.07.08.12-.002.024-.045.07-.084.098-.01.025.062 0 .102.054.157.042.043.04.094-.03.09.01.03.03.063 0 .092-.015.014-.054.043-.026.063.033-.015.067-.024.1-.04.035-.014.07-.05.11-.05.003.014-.054.052-.018.055.03.003.072-.028.095-.002.028.028-.006.07.01.102.016.032.07.008.095.013-.01.028-.052.023-.075.034.052.064-.016.158-.092.16-.036 0-.166-.15-.17-.053-.002.027.006.062.015.09.012.034.097.02.128.032.045.018.096.06.114.106.017.046.055.076.07.12.03.082.107.093.188.117.107.032.055.2.05.28-.006.078.104.097.155.142.056.05.065.144-.028.152-.048.003-.127-.02-.145.042-.026.086.105.077.162.096.027.01.134.02.144.045.016.04.004.092.018.133.033.105.13.175.224.227.2.113.44.184.66.247.124.036.25.064.376.08.122.017.23.007.334.075.072.047.118.012.192.025.03.006.045.035.07.052.025.02.056-.006.084.005.005-.02.003-.037-.005-.055.056.02.125.08.184.033.03-.024.05-.057.08-.08.036.003.072.005.11.005.15 0 .272-.07.394-.152.132-.088.29-.09.442-.104.16-.016.332-.037.48-.107.127-.062.16-.175.196-.3.04-.136.158-.19.236-.3.092-.13.03-.296.106-.43zm-5.885-1.804c-.005-.032-.017-.052-.04-.07-.002.002-.003.004-.003.008-.034-.017-.038-.08-.083-.076-.04-.06-.133-.033-.163.022-.02.037.004.054.026.08.027.035.022.06.032.1.025.1.11.032.168.07.023.016.03.06.065.052.037-.01.036-.065.026-.09-.014-.036-.024-.057-.03-.096zm.788 1.19c.006-.016-.02-.035-.038-.034-.016 0-.03.023-.037.035-.02.035.002.082.048.082.01-.02.007-.056.035-.06 0-.008-.007-.01-.015-.014l.008-.008zm-.838-1.268l.01.007.006-.015-.015.008zm9.245 1.403c-.017.015-.012.033-.02.052-.01.023-.043.032-.062.044-.03.02-.04.064-.072.075-.014-.02-.035-.08-.063-.028-.017.033-.006.066-.033.096-.027.028-.025.062-.043.093-.03.05-.058.08-.106.108-.037.023-.045.066-.073.098-.03.035-.075.048-.115.066-.03.012-.076.046-.11.027-.042-.028.017-.076.038-.093.02-.016.113-.073.09-.105-.013-.02-.067-.018-.088-.016-.045.005-.078.05-.116.07-.042.025-.08.045-.125.06-.052.02-.056.07-.1.1-.032.026-.076.046-.12.046-.056 0-.053-.048-.07-.088-.022.003-.04.03-.06.04-.035.014-.057.03-.042.067.014.04-.14.074-.166.093-.006-.02.024-.04.036-.05-.047-.004-.1.037-.15.044-.045.006-.103.038-.11.086-.005.038-.055.037-.086.05-.053.022-.03.053-.04.095-.02.08-.185.02-.102-.086.03-.037.074-.06.1-.1.032-.043.037-.098.06-.145-.052.015-.09.045-.136.074-.05.034-.093.026-.15.015-.064-.014-.11.02-.17.034-.038.008-.124.005-.13.06-.002.037.06.044.08.065.032.032.065.08.09.115.022.028.1.067.094.103-.008.07-.096.058-.143.07-.048.012-.055.055-.09.08-.04.03-.092-.004-.135.014-.045.017-.076.057-.115.083-.065.045-.107-.004-.174-.007-.054-.002-.103.023-.154.034-.047.01-.103.018-.138.05-.078.07.172.052.196.05-.01.04-.022.087-.058.113-.046.033-.11.025-.162.037-.04.01-.097.055-.038.087.054.027.122.013.175-.006.062-.02.12-.054.184-.068.067-.015.137-.008.204-.02.072-.014.135-.053.202-.08.064-.026.13-.036.2-.038-.014.025-.082.023-.107.03-.05.01-.085.053-.137.05-.06-.002-.053.04-.095.05-.027.007-.092.07-.113.03-.015-.03-.046-.024-.056.014-.007.028.01.038-.03.04-.03 0-.043-.013-.07-.02-.053-.014-.076.04-.114.055-.055.022-.114.015-.168.05-.03.02-.064.026-.1.037-.066.02-.13.046-.195.068-.05.018-.102.04-.157.04-.023 0-.114-.015-.13.012-.026.05.058.03.076.02.05-.026.112-.01.168-.01.07 0 .126-.014.188-.046.017-.008.13-.032.135-.02.01.007.083-.02.096-.023l.18-.042c.18-.047.36-.118.54-.18.353-.12.678-.322.986-.528.14-.093.253-.215.404-.29.152-.077.288-.178.427-.273.136-.093.24-.22.353-.338.115-.12.21-.23.262-.39-.03-.006-.06.053-.082.064-.04.02-.11.01-.14.04zm-.85-.162c.034-.047.004-.11-.057-.074-.023.013-.02.04-.038.055-.018.016-.02-.004-.04-.01-.026-.005-.07.03-.078.055-.036 0-.07.04-.052.072.048-.018.078-.063.13-.05.04.012.108-.014.134-.05z"/></svg>