<?xml version="1.0"?>
<!-- This Source Code Form is subject to the terms of the Mozilla Public
   - License, v. 2.0. If a copy of the MPL was not distributed with this
   - file, You can obtain one at http://mozilla.org/MPL/2.0/. -->
<svg xmlns="http://www.w3.org/2000/svg" xmlns:xlink="http://www.w3.org/1999/xlink" width="32" height="32" viewBox="0 0 32 32">
  <style>
    path, rect {
      fill: #505050;
    }

    #screen {
      fill-opacity: .1;
    }

    #icon {
      fill-opacity: .6;
    }
  </style>

  <path id="body" d="M2,7c0-1.1,0.9-2,2-2h24c1.1,0,2,0.9,2,2v16H2V7z M4,21h24V7H4V21z M30,26H2c-1.1,0-2-0.9-2-2h32 C32,24,31.1,26,30,26z"/>
  <rect id="screen" class="cls-2" x="4" y="7" width="24" height="14"/>
  <path id="icon" d="M20,16.3c-0.1,0.2-0.1,0.3-0.2,0.5c-0.1,0.3-0.3,0.7-0.5,1c-0.2,0.3-0.4,0.6-0.7,0.8 c-0.2,0.2-0.5,0.4-0.8,0.4c-0.3,0-0.5-0.1-0.8-0.2c-0.3-0.1-0.5-0.2-0.8-0.2c-0.3,0-0.6,0.1-0.9,0.2c-0.2,0.1-0.5,0.2-0.7,0.2 c-0.3,0-0.6-0.2-0.9-0.4c-0.3-0.3-0.5-0.6-0.7-0.9c-0.3-0.5-0.6-1-0.7-1.5C12.1,15.6,12,15,12,14.4c0-0.6,0.1-1.2,0.4-1.7 c0.2-0.4,0.5-0.7,0.9-0.9c0.4-0.2,0.8-0.3,1.2-0.3c0.3,0,0.6,0.1,0.9,0.2c0.2,0.1,0.5,0.2,0.7,0.2c0.3-0.1,0.5-0.1,0.8-0.3 c0.3-0.1,0.7-0.2,1.1-0.2c0.7,0,1.4,0.4,1.8,1c-0.7,0.4-1.1,1.1-1.1,1.9C18.7,15.2,19.2,16,20,16.3z M18,9c0,0.1,0,0.1,0,0.2 c0,0.5-0.2,1-0.5,1.4c-0.3,0.5-0.9,0.8-1.5,0.8c0-0.1,0-0.1,0-0.2c0-0.5,0.2-1,0.6-1.4c0.2-0.2,0.4-0.4,0.7-0.5 C17.5,9.1,17.7,9,18,9z"/>

</svg>
