<?xml version="1.0"?>
<!-- This Source Code Form is subject to the terms of the Mozilla Public
   - License, v. 2.0. If a copy of the MPL was not distributed with this
   - file, You can obtain one at http://mozilla.org/MPL/2.0/. -->
<svg xmlns="http://www.w3.org/2000/svg" xmlns:xlink="http://www.w3.org/1999/xlink" width="32" height="32" viewBox="0 0 32 32">
  <style>
    path, rect {
      fill: #505050;
    }

    #screen {
      fill-opacity: .1;
    }

    #icon {
      fill-opacity: .6;
    }
  </style>

  <path id="body" d="M26,32H6c-1.1,0-2-0.9-2-2V2c0-1.1,0.9-2,2-2h20c1.1,0,2,0.9,2,2v28C28,31.1,27.1,32,26,32z M16,31 c0.6,0,1-0.4,1-1s-0.4-1-1-1s-1,0.4-1,1S15.4,31,16,31z M16,1.5c-0.3,0-0.5,0.2-0.5,0.5s0.2,0.5,0.5,0.5s0.5-0.2,0.5-0.5 S16.2,1.5,16,1.5z M26,4H6v24h20V4z"/>
  <rect id="screen" x="6" y="4" width="20" height="24"/>
  <path id="icon" d="M20,18.3c-0.1,0.2-0.1,0.3-0.2,0.5c-0.1,0.3-0.3,0.7-0.5,1c-0.2,0.3-0.4,0.6-0.7,0.8 c-0.2,0.2-0.5,0.4-0.8,0.4c-0.3,0-0.5-0.1-0.8-0.2c-0.3-0.1-0.5-0.2-0.8-0.2c-0.3,0-0.6,0.1-0.9,0.2c-0.2,0.1-0.5,0.2-0.7,0.2 c-0.3,0-0.6-0.2-0.9-0.4c-0.3-0.3-0.5-0.6-0.7-0.9c-0.3-0.5-0.6-1-0.7-1.5C12.1,17.6,12,17,12,16.4c0-0.6,0.1-1.2,0.4-1.7 c0.2-0.4,0.5-0.7,0.9-0.9c0.4-0.2,0.8-0.3,1.2-0.3c0.3,0,0.6,0.1,0.9,0.2c0.2,0.1,0.5,0.2,0.7,0.2c0.3-0.1,0.5-0.1,0.8-0.3 c0.3-0.1,0.7-0.2,1.1-0.2c0.7,0,1.4,0.4,1.8,1c-0.7,0.4-1.1,1.1-1.1,1.9C18.7,17.2,19.2,18,20,18.3z M18,11c0,0.1,0,0.1,0,0.2 c0,0.5-0.2,1-0.5,1.4c-0.3,0.5-0.9,0.8-1.5,0.8c0-0.1,0-0.1,0-0.2c0-0.5,0.2-1,0.6-1.4c0.2-0.2,0.4-0.4,0.7-0.5 C17.5,11.1,17.7,11,18,11z"/>

</svg>
