<?xml version="1.0"?>
<!-- This Source Code Form is subject to the terms of the Mozilla Public
   - License, v. 2.0. If a copy of the MPL was not distributed with this
   - file, You can obtain one at http://mozilla.org/MPL/2.0/. -->
<svg xmlns="http://www.w3.org/2000/svg" xmlns:xlink="http://www.w3.org/1999/xlink" width="32" height="32" viewBox="0 0 32 32">
  <style>
    path {
      fill: #505050;
    }
  </style>

  <path d="M2,5.8c0.7-1.5,1.9-1.9,3.5-1.9c7.1,0.1,14.2,0,21.4,0c0.8-0.1,1.6,0.1,2.3,0.7c0.4,0.4,0.7,1,0.8,1.6 c0,3.5,0.1,6.9-0.1,10.4c-0.6,5.7-4.7,10.5-10.3,11.8c-7.5,1.9-15.1-2.6-17-10.1c-0.1-0.3-0.1-0.6-0.2-0.9 c-0.1-0.6-0.2-1.2-0.3-1.7L2,5.8L2,5.8L2,5.8z M16,16.6c-0.4-0.3-0.7-0.6-1-0.9c-1.4-1.3-2.8-2.7-4.2-4c-0.7-0.8-1.9-0.9-2.7-0.2 c-0.1,0-0.1,0.1-0.2,0.2c-0.7,0.8-0.7,2,0,2.7c0,0,0,0,0.1,0.1c2.2,2.1,4.3,4.2,6.5,6.3c0.6,0.8,1.7,0.9,2.5,0.3 c0.1-0.1,0.1-0.1,0.2-0.2c2.3-2.1,4.5-4.2,6.7-6.4c0.7-0.8,0.7-2,0-2.7c-0.3-0.3-0.6-0.5-1-0.5c-0.7-0.1-1.5,0.2-1.9,0.7 C19.4,13.4,17.7,14.9,16,16.6L16,16.6L16,16.6z"/>

</svg>
