<?xml version="1.0"?>
<!-- This Source Code Form is subject to the terms of the Mozilla Public
   - License, v. 2.0. If a copy of the MPL was not distributed with this
   - file, You can obtain one at http://mozilla.org/MPL/2.0/. -->
<svg xmlns="http://www.w3.org/2000/svg" xmlns:xlink="http://www.w3.org/1999/xlink" width="32" height="32" viewBox="0 0 32 32">
  <style>
    path, rect {
      fill: #505050;
    }

    #screen {
      fill-opacity: .1;
    }

    #icon {
      fill-opacity: .6;
    }
  </style>

  <path id="body" d="M2,7c0-1.1,0.9-2,2-2h24c1.1,0,2,0.9,2,2v16H2V7z M4,21h24V7H4V21z M30,26H2c-1.1,0-2-0.9-2-2h32 C32,24,31.1,26,30,26z"/>
  <rect id="screen" class="cls-2" x="4" y="7" width="24" height="14"/>
  <path id="icon" d="M11,10.3l3.9-0.5v3.3H11V10.3L11,10.3z M11,14h3.9v4.2L11,17.7V14z M15.9,13.1H21V9l-5.1,0.6V13.1 L15.9,13.1z M15.9,14v4.4L21,19v-5H15.9z"/>

</svg>
