<?xml version="1.0"?>
<!-- This Source Code Form is subject to the terms of the Mozilla Public
   - License, v. 2.0. If a copy of the MPL was not distributed with this
   - file, You can obtain one at http://mozilla.org/MPL/2.0/. -->
<svg xmlns="http://www.w3.org/2000/svg" xmlns:xlink="http://www.w3.org/1999/xlink" width="32" height="32" viewBox="0 0 32 32">
  <style>
    path {
      fill: #505050;
    }
  </style>

  <path d="M21,31c1.1,0,2-0.9,2-2c0,0,0,0,0,0v-7.1c0,0,0.2-1.8,1.4-1.8s1.1,1.9,3.4,1.9 c1.1,0,3.1-0.6,3.1-4.1s-2-3.9-3.1-3.9c-2.3,0-2.1,1.8-3.4,1.8S23,13.9,23,13.9V11c0-1.1-0.9-2-2-2c0,0,0,0,0,0h-5.2 c0,0-1.7-0.3-1.7-1.5s1.9-1.3,1.9-3.6c0-1.1-0.6-2.9-4.1-2.9s-4,1.8-4,2.9c0,2.3,1.7,2.3,1.7,3.6S7.8,9,7.8,9H2.9c-1.1,0-2,0.9-2,2 v3.9c0,0-0.2,3,2.2,3c1.5,0,1.7-2.1,3.7-2.1c1,0,2,0.9,2,3s-1,3.1-2,3.1c-2,0-2.2-2.1-3.7-2.1c-2.4,0-2.2,2.9-2.2,2.9V29 c0,1.1,0.9,2,2,2c0,0,0,0,0,0h6.6c0,0,3.2,0.2,3.2-2.2c0-1.5-2-1.8-2-3.9c0-1,1.1-2.2,3.2-2.2s3.3,1.2,3.3,2.2c0,2-1.9,2.3-1.9,3.9 c0,2.4,3.2,2.2,3.2,2.2H21z"/>

</svg>
