<!-- This Source Code Form is subject to the terms of the Mozilla Public
   - License, v. 2.0. If a copy of the MPL was not distributed with this
   - file, You can obtain one at http://mozilla.org/MPL/2.0/. -->
<svg width="16px" height="16px" viewBox="0 0 16 16" version="1.1" xmlns="http://www.w3.org/2000/svg" xmlns:xlink="http://www.w3.org/1999/xlink">
    <!-- Generator: Sketch 49.2 (51160) - http://www.bohemiancoding.com/sketch -->
    <title>Icons / password-show</title>
    <desc>Created with Sketch.</desc>
    <defs>
        <path d="M15.955,7.7 C14.8179027,4.27748201 11.6063915,1.97633636 8,2 C4.39360848,1.97633636 1.18209732,4.27748201 0.045,7.7 C-0.0151633613,7.89342976 -0.0151633613,8.10057024 0.045,8.294 C1.18000461,11.7188904 4.39201034,14.0228131 8,14 C11.6063915,14.0236636 14.8179027,11.722518 15.955,8.3 C16.0164144,8.10471466 16.0164144,7.89528534 15.955,7.7 Z M8.5,5 C9.32842712,5 10,5.67157288 10,6.5 C10,7.32842712 9.32842712,8 8.5,8 C7.67157288,8 7,7.32842712 7,6.5 C7,5.67157288 7.67157288,5 8.5,5 Z M8,12 C5.38258749,12.0234193 3.02063441,10.4336815 2.057,8 C2.53653736,6.75157407 3.41551402,5.69680208 4.557,5 C4.19654605,5.60517096 4.00425395,6.29562734 4,7 C4.00000003,9.20913898 5.79086102,10.9999999 8,10.9999999 C10.209139,10.9999999 12,9.20913898 12,7 C11.9963514,6.29581229 11.8047533,5.60536864 11.445,5 C12.586486,5.69680208 13.4654626,6.75157407 13.945,8 C12.9811024,10.4343681 10.6181403,12.0242501 8,12 Z" id="path-1"></path>
    </defs>
    <g id="Icons-/-password-show" stroke="none" stroke-width="1" fill="none" fill-rule="evenodd">
        <rect id="bouding-box" x="0" y="0" width="16" height="16"></rect>
        <mask id="mask-2" fill="white">
            <use xlink:href="#path-1"></use>
        </mask>
        <g id="Shape" fill-rule="nonzero"></g>
        <g id="Color-/-Photon-/-Primary---Grey-90-80%" mask="url(#mask-2)" fill="#0C0C0D" fill-opacity="0.8">
            <rect id="Rectangle" x="0" y="0" width="16" height="16"></rect>
        </g>
    </g>
</svg>
