<svg xmlns="http://www.w3.org/2000/svg" viewBox="0 0 511.999 511.999"><path d="M16.242 429.476l216.09-374.28c10.518-18.22 36.814-18.22 47.333 0l216.09 374.28c10.52 18.22-2.63 40.99-23.665 40.99H39.908c-21.036 0-34.185-22.77-23.666-40.99z" fill="#F5C525"/><g fill="#EFEFEF"><path d="M256 322.45c-14.173 0-25.66-11.488-25.66-25.66V172.87c0-14.172 11.487-25.66 25.66-25.66 14.17 0 25.66 11.488 25.66 25.66v123.92c0 14.172-11.49 25.66-25.66 25.66z"/><circle cx="256.001" cy="397.558" r="25.034"/></g><g fill="#231F20"><path d="M506.597 423.218l-216.09-374.28C283.303 36.46 270.403 29.013 256 29.013c-14.404 0-27.304 7.448-34.506 19.922L5.402 423.218c-7.202 12.475-7.202 27.37 0 39.845 7.202 12.475 20.103 19.922 34.507 19.922H472.09c14.405 0 27.305-7.448 34.507-19.922 7.2-12.475 7.2-27.37-.003-39.845zm-21.68 27.327c-1.286 2.227-5.108 7.405-12.826 7.405H39.91c-7.718 0-11.54-5.178-12.826-7.405-1.286-2.227-3.86-8.126 0-14.81l216.09-374.28c3.86-6.684 10.255-7.406 12.826-7.406s8.967.72 12.826 7.404l216.09 374.28c3.86 6.685 1.287 12.584.003 14.81z"/><path d="M256 134.692c-21.052 0-38.178 17.126-38.178 38.177v123.92c0 21.05 17.126 38.177 38.177 38.177s38.176-17.126 38.176-38.177V172.87c0-21.052-17.126-38.178-38.177-38.178zM269.14 296.79c0 7.247-5.896 13.143-13.143 13.143s-13.144-5.896-13.144-13.143V172.87c0-7.247 5.896-13.143 13.143-13.143s13.142 5.896 13.142 13.143v123.92zM256 360.002c-20.707 0-37.553 16.846-37.553 37.552s16.846 37.552 37.552 37.552 37.55-16.846 37.55-37.552-16.845-37.552-37.55-37.552zm0 50.07c-6.903 0-12.518-5.616-12.518-12.518 0-6.902 5.615-12.517 12.517-12.517s12.516 5.615 12.516 12.517c0 6.9-5.615 12.517-12.517 12.517z"/></g></svg>